<?xml version="1.0" encoding="UTF-8"?>
<svg version="1.1" xmlns="http://www.w3.org/2000/svg" width="940" height="265">
<path d="M0 0 C0.92522461 0.4328833 0.92522461 0.4328833 1.86914062 0.87451172 C28.17325851 13.39673468 48.16520475 35.76680314 58.90234375 62.7734375 C61.41995738 70.17396726 64 78.15732023 64 86 C51.84787953 86.20859145 39.69618526 86.36847543 27.54263878 86.46630955 C21.89903888 86.51326769 16.2566642 86.57694922 10.61376953 86.67895508 C5.16718148 86.77679539 -0.27822887 86.83056798 -5.7256279 86.85389519 C-7.80300822 86.87051661 -9.8803245 86.90297672 -11.95720291 86.95157051 C-28.22322116 87.31699447 -28.22322116 87.31699447 -32.51730347 84.1341095 C-34.10941325 81.79345908 -35.0744002 79.66592701 -36 77 C-36.61858887 76.00685791 -37.23717773 75.01371582 -37.87451172 73.99047852 C-39.54587569 71.183794 -41.21398645 68.37532498 -42.875 65.5625 C-43.46796875 64.57056641 -44.0609375 63.57863281 -44.671875 62.55664062 C-45.23132813 61.61111328 -45.79078125 60.66558594 -46.3671875 59.69140625 C-46.87362793 58.83748291 -47.38006836 57.98355957 -47.90185547 57.10375977 C-49 55 -49 55 -49 53 C-28.21 52.67 -7.42 52.34 14 52 C5.1395425 42.82298846 5.1395425 42.82298846 -4.8125 35.625 C-5.48482666 35.21636719 -6.15715332 34.80773438 -6.84985352 34.38671875 C-13.26608118 30.6148596 -19.83652621 28.05443022 -27 26 C-27.80824219 25.76796875 -28.61648437 25.5359375 -29.44921875 25.296875 C-31.62997525 24.74874949 -33.77750911 24.34013774 -36 24 C-36.87527344 23.8659375 -37.75054687 23.731875 -38.65234375 23.59375 C-55.69982547 21.58008773 -75.42134465 25.79555365 -90 35 C-91.71315885 36.56068291 -91.71315885 36.56068291 -93 38 C-92.50113281 38.82757813 -92.00226563 39.65515625 -91.48828125 40.5078125 C-86.38970797 48.97913873 -81.32564493 57.47055533 -76.32519531 66.00024414 C-73.49208313 70.82453753 -70.62758012 75.62481479 -67.68486023 80.38290405 C-66.17077417 82.83464634 -64.67050219 85.2947061 -63.1711731 87.75549316 C-62.43545906 88.95462057 -61.693208 90.14976307 -60.94430542 91.34069824 C-59.89556662 93.00983303 -58.8710609 94.69411934 -57.84765625 96.37890625 C-57.24961182 97.3438501 -56.65156738 98.30879395 -56.03540039 99.30297852 C-55 102 -55 102 -55.62451172 104.49829102 C-56.07842285 105.32385498 -56.53233398 106.14941895 -57 107 C-57.48218994 107.89638184 -57.96437988 108.79276367 -58.46118164 109.71630859 C-59.02184326 110.68391113 -59.58250488 111.65151367 -60.16015625 112.6484375 C-60.7840625 113.72802734 -61.40796875 114.80761719 -62.05078125 115.91992188 C-63.04658203 117.63018555 -63.04658203 117.63018555 -64.0625 119.375 C-64.75276666 120.56566102 -65.44286985 121.75641682 -66.1328125 122.94726562 C-69.87021204 129.38877391 -73.64896994 135.8021238 -77.51269531 142.16870117 C-81.2084742 148.28611622 -84.75173669 154.49086431 -88.3125 160.6875 C-93.07679296 168.96632732 -97.86242258 177.2307185 -102.75 185.4375 C-103.23895752 186.26531982 -103.72791504 187.09313965 -104.23168945 187.94604492 C-104.68632568 188.70506104 -105.14096191 189.46407715 -105.609375 190.24609375 C-106.00092773 190.90279053 -106.39248047 191.5594873 -106.79589844 192.23608398 C-108.03667127 194.05372058 -109.3970586 195.49818415 -111 197 C-134.80659825 179.55192084 -150.12622914 158.60508516 -158 130 C-158.17966309 129.36030273 -158.35932617 128.72060547 -158.54443359 128.06152344 C-163.5079708 109.55233307 -161.41582413 90.35326903 -157 72 C-153.90095692 74.70143458 -152.01822308 78.08104841 -149.97265625 81.58984375 C-149.58744308 82.24209427 -149.20222992 82.89434479 -148.80534363 83.56636047 C-147.55361156 85.68767759 -146.30809007 87.81257174 -145.0625 89.9375 C-144.20135242 91.39906131 -143.33969649 92.86032322 -142.47753906 94.32128906 C-141.18758027 96.50729336 -139.8979191 98.69346561 -138.60995483 100.88064575 C-135.1886623 106.68981842 -131.72992145 112.47575091 -128.25 118.25 C-124.10785926 125.13327369 -120.01625552 132.04226156 -116 139 C-113.22502693 135.65862108 -110.87080061 132.29567951 -108.6875 128.54296875 C-108.08679688 127.51236328 -107.48609375 126.48175781 -106.8671875 125.41992188 C-106.25101563 124.35322266 -105.63484375 123.28652344 -105 122.1875 C-104.38382813 121.13240234 -103.76765625 120.07730469 -103.1328125 118.99023438 C-101.93791592 116.93249939 -100.76041127 114.86454632 -99.60229492 112.78588867 C-98 110 -98 110 -96.4543457 107.84887695 C-95.08060301 105.79521426 -94.3222805 104.45467377 -94 102 C-95.38649339 97.8401118 -97.74794216 94.43009308 -100.1875 90.8125 C-101.23754038 89.16645739 -102.28747765 87.52034272 -103.33276367 85.87127686 C-104.0687802 84.71378113 -104.80894076 83.55891125 -105.55297852 82.40655518 C-109.49182828 76.30192606 -113.14359712 70.03878962 -116.78585815 63.75421143 C-122.83428711 53.29563877 -122.83428711 53.29563877 -129.109375 42.97265625 C-129.54523926 42.27092285 -129.98110352 41.56918945 -130.43017578 40.84619141 C-131.5181955 39.10811659 -132.62156412 37.37967393 -133.7265625 35.65234375 C-135 33 -135 33 -134.75512695 31.03466797 C-133.89685614 28.72208182 -132.92451498 27.53740676 -131.19140625 25.79296875 C-130.61455078 25.2098291 -130.03769531 24.62668945 -129.44335938 24.02587891 C-128.51233398 23.11588135 -128.51233398 23.11588135 -127.5625 22.1875 C-126.92505859 21.56020996 -126.28761719 20.93291992 -125.63085938 20.28662109 C-120.7599825 15.57393735 -115.80656376 11.52072192 -110 8 C-108.99066406 7.35804687 -107.98132813 6.71609375 -106.94140625 6.0546875 C-74.67680564 -13.56517368 -34.26058412 -16.12042768 0 0 Z " fill="#228AE4" transform="translate(185,27)"/>
<path d="M0 0 C11.60535816 9.08357301 18.81654131 25.107234 20.73388672 39.43457031 C22.94074376 61.28295547 19.73444828 81.39884461 6.24609375 99.23828125 C5.818125 99.6765625 5.39015625 100.11484375 4.94921875 100.56640625 C4.28921875 100.56640625 3.62921875 100.56640625 2.94921875 100.56640625 C6.32265383 108.15197574 10.68738629 114.970866 15.2902832 121.85131836 C15.76167725 122.56167236 16.23307129 123.27202637 16.71875 124.00390625 C17.14776611 124.64199219 17.57678223 125.28007812 18.01879883 125.9375 C18.94921875 127.56640625 18.94921875 127.56640625 18.94921875 129.56640625 C-5.45867808 131.80025782 -5.45867808 131.80025782 -11.26025391 128.19238281 C-14.7235875 124.54192491 -16.526342 120.30910614 -18.05078125 115.56640625 C-18.71432617 115.70643066 -19.37787109 115.84645508 -20.06152344 115.99072266 C-39.21719342 119.78761413 -59.36672424 119.27637965 -76.265625 108.609375 C-89.81644226 98.66957496 -97.70946022 84.80556931 -101.36328125 68.50390625 C-103.85387993 52.09948225 -103.15926924 33.33641298 -95.05078125 18.56640625 C-94.59574219 17.73496094 -94.14070312 16.90351562 -93.671875 16.046875 C-85.64576631 2.06929145 -74.74391248 -6.52319684 -59.06738281 -11 C-38.21977915 -16.20029312 -17.43923268 -12.19085408 0 0 Z M-67.05078125 21.56640625 C-69.06680307 24.43818733 -70.62157444 27.36563511 -72.05078125 30.56640625 C-72.35886719 31.25347656 -72.66695312 31.94054687 -72.984375 32.6484375 C-78.03098016 45.66336659 -77.05655468 61.79855975 -72.3359375 74.7421875 C-68.69022731 82.75388496 -62.96861481 88.71215757 -55.05078125 92.56640625 C-44.55329684 96.4868074 -34.6618283 96.41429329 -24.3984375 91.84375 C-16.29999237 87.43744125 -11.43019057 81.08335996 -8.05078125 72.56640625 C-5.74808555 64.35490649 -4.31415388 56.09218603 -5.05078125 47.56640625 C-5.12039063 46.64730469 -5.19 45.72820312 -5.26171875 44.78125 C-6.44283923 34.8204673 -10.45917435 24.45503287 -17.86328125 17.44140625 C-32.79726235 6.22672462 -54.46669783 7.32504399 -67.05078125 21.56640625 Z " fill="#248AE3" transform="translate(878.05078125,75.43359375)"/>
<path d="M0 0 C5.61512173 0.29904163 11.23403747 0.42958617 16.8548584 0.57525635 C27.84466539 0.88448177 38.81756797 1.37788504 49.79431152 1.99127197 C49.65554935 3.56694104 49.51132554 5.14212961 49.36486816 6.71710205 C49.24529503 8.03295036 49.24529503 8.03295036 49.12330627 9.37538147 C48.6280017 13.31362828 47.52299692 16.93694362 46.23181152 20.67877197 C45.96787598 21.44987305 45.70394043 22.22097412 45.43200684 23.01544189 C40.73188094 36.22605587 33.72747769 47.26305829 24.79431152 57.99127197 C24.08661621 58.86396729 23.3789209 59.7366626 22.64978027 60.63580322 C4.81798541 81.6435764 -22.62590326 95.0809497 -49.92004395 97.81036377 C-65.88594594 99.07406099 -81.86474452 97.65849037 -97.20568848 92.99127197 C-96.52338173 89.16389446 -94.77361542 86.2505753 -92.82678223 82.91314697 C-92.4952565 82.34170959 -92.16373077 81.77027222 -91.82215881 81.18151855 C-90.76709592 79.36538314 -89.70526266 77.55331432 -88.64318848 75.74127197 C-87.92463846 74.50715949 -87.20653443 73.27278722 -86.4888916 72.03814697 C-84.73298004 69.0194955 -82.97097632 66.00445208 -81.20568848 62.99127197 C-80.4964624 63.06128418 -79.78723633 63.13129639 -79.05651855 63.20343018 C-51.06943623 65.87392626 -29.51479847 61.1172351 -7.65100098 43.23736572 C-4.76543428 40.70147331 -4.76543428 40.70147331 -1.20568848 35.99127197 C-21.66568848 35.66127197 -42.12568848 35.33127197 -63.20568848 34.99127197 C-54.1380084 -1.27944832 -33.98633032 -2.00230604 0 0 Z " fill="#228BE4" transform="translate(199.2056884765625,145.00872802734375)"/>
<path d="M0 0 C8.58 0 17.16 0 26 0 C28.94954534 7.86545424 31.6594186 15.78304772 34.3125 23.75 C34.69459625 24.89520111 34.69459625 24.89520111 35.08441162 26.0635376 C41.22665865 44.49217663 47.101069 63.00636754 52.94538879 81.53128052 C54.26221581 85.69971101 55.60363199 89.85730346 57 94 C59.79144309 87.24855006 62.26050676 80.45140033 64.50390625 73.5 C64.82398651 72.51733154 65.14406677 71.53466309 65.47384644 70.5222168 C66.50652735 67.34915223 67.53449841 64.17458327 68.5625 61 C69.27516064 58.80849247 69.98813499 56.61708694 70.70141602 54.42578125 C73.97145099 44.37261156 77.22430867 34.31397163 80.4609375 24.25 C80.7197319 23.44626953 80.97852631 22.64253906 81.24516296 21.81445312 C82.43856496 18.10809759 83.62905205 14.40087478 84.81274414 10.69140625 C85.22792079 9.39840328 85.64319725 8.10543236 86.05859375 6.8125 C86.41236084 5.70519531 86.76612793 4.59789063 87.13061523 3.45703125 C88 1 88 1 89 0 C90.92667507 -0.08748207 92.85651861 -0.10697334 94.78515625 -0.09765625 C95.95498047 -0.09443359 97.12480469 -0.09121094 98.33007812 -0.08789062 C99.56177734 -0.07951172 100.79347656 -0.07113281 102.0625 -0.0625 C103.91584961 -0.05573242 103.91584961 -0.05573242 105.80664062 -0.04882812 C108.87114117 -0.03699608 111.93554721 -0.02051173 115 0 C113.80058004 5.93161904 112.25617401 11.5782465 110.20703125 17.26953125 C109.94008957 18.02440826 109.67314789 18.77928528 109.39811707 19.55703735 C108.54108622 21.97727493 107.67686887 24.39487466 106.8125 26.8125 C106.21887313 28.48492013 105.62577649 30.15752857 105.03320312 31.83032227 C103.87548393 35.09700498 102.71541112 38.36283445 101.55322266 41.62792969 C99.68142184 46.89057567 97.8372409 52.16270294 96 57.4375 C93.79647335 63.74595706 91.56104836 70.04224101 89.3046875 76.33203125 C88.02600656 79.92688576 86.76838196 83.52847761 85.51464844 87.13208008 C82.81719009 94.88024047 80.07748694 102.61074059 77.25 110.3125 C76.96850098 111.08231201 76.68700195 111.85212402 76.39697266 112.64526367 C75.99164307 113.74318237 75.99164307 113.74318237 75.578125 114.86328125 C75.22862793 115.81134644 75.22862793 115.81134644 74.87207031 116.77856445 C73.65382998 119.8818032 72.31324685 122.93575736 71 126 C62.09 126 53.18 126 44 126 C41.03957612 118.89498268 38.14236346 111.89670438 35.58203125 104.66015625 C35.28328094 103.82355972 34.98453064 102.9869632 34.67672729 102.12501526 C33.71863879 99.43868785 32.76538021 96.75067879 31.8125 94.0625 C31.14244899 92.17948381 30.47228173 90.29650899 29.80200195 88.41357422 C25.63634593 76.69493851 21.54007866 64.95434035 17.51049805 53.18823242 C13.84072749 42.48556965 10.04604993 31.82964514 6.2265625 21.1796875 C5.67210449 19.63039551 5.67210449 19.63039551 5.10644531 18.04980469 C4.36022541 15.99292493 3.59878062 13.94151335 2.82324219 11.89550781 C2.45618164 10.92194336 2.08912109 9.94837891 1.7109375 8.9453125 C1.3814209 8.08695801 1.0519043 7.22860352 0.71240234 6.34423828 C0 4 0 4 0 0 Z " fill="#228AE4" transform="translate(369,65)"/>
<path d="M0 0 C5.52872772 4.49209127 8.92078054 9.62646855 12 16 C12.309375 16.63292969 12.61875 17.26585938 12.9375 17.91796875 C16.00140131 24.59079228 16.18180654 31.11027756 16.1875 38.3125 C16.19974609 39.11623047 16.21199219 39.91996094 16.22460938 40.74804688 C16.25743023 54.34682196 11.77052623 64.88306622 2.375 74.7421875 C-8.21455792 84.80923434 -20.38425183 87.62198879 -34.68017578 87.47265625 C-48.5570386 86.98602717 -59.62498769 81.32919621 -69.1484375 71.3125 C-76.93896844 61.58255418 -80.8193624 48.18624423 -80.34765625 35.7578125 C-78.72731318 22.90430452 -75.14029181 10.72536737 -65 2 C-64.35289062 1.43539062 -63.70578125 0.87078125 -63.0390625 0.2890625 C-44.88538568 -14.80715296 -18.68388629 -13.49391788 0 0 Z M-49.25 18.1875 C-55.14463247 27.66101647 -56.77856246 37.08639624 -54.3046875 48.09375 C-51.94821414 55.30178616 -48.53540871 60.58949406 -42.25 64.875 C-35.38948386 67.24979405 -28.94547666 67.83354553 -22.1015625 65.125 C-15.47976674 61.58024688 -11.9096931 56.29653546 -9.66015625 49.2265625 C-7.66848817 39.49213744 -7.55999411 28.63720233 -13 20 C-16.43133128 15.64985252 -19.64131311 12.66490995 -25 11 C-35.35489782 9.82471291 -41.82823271 10.97189292 -49.25 18.1875 Z " fill="#2389E3" transform="translate(597,106)"/>
<path d="M0 0 C6.5721303 -0.5076786 13.12628624 -0.79822599 19.71875 -0.66796875 C20.80091797 -0.65016357 21.88308594 -0.6323584 22.99804688 -0.61401367 C26.81034439 0.16574627 28.39470532 1.6636954 31 4.5 C32.05935384 6.63827358 33.05235034 8.80993047 34 11 C35.26039924 13.20068892 36.58601057 15.34901765 37.93554688 17.49609375 C38.84264311 18.93972776 39.72878566 20.3967745 40.59179688 21.8671875 C41.64669619 23.62932949 42.81504899 25.32254715 44 27 C44.99 27 45.98 27 47 27 C48.68673815 24.41795039 48.68673815 24.41795039 50.28125 21.09375 C60.76940201 1.55050883 60.76940201 1.55050883 68.48925781 -1.27880859 C76.39932353 -2.37621297 84.19502674 -1.52501983 92 0 C91.39096119 3.14156368 90.37943189 5.16734764 88.48046875 7.73046875 C87.95831787 8.44299805 87.43616699 9.15552734 86.89819336 9.88964844 C86.33366455 10.64793945 85.76913574 11.40623047 85.1875 12.1875 C84.00437857 13.80017283 82.82210781 15.41347004 81.640625 17.02734375 C80.73473633 18.26073486 80.73473633 18.26073486 79.81054688 19.51904297 C76.97814249 23.4002314 74.20462323 27.32211966 71.4375 31.25 C70.94983154 31.93989014 70.46216309 32.62978027 69.9597168 33.34057617 C69.05133431 34.6291529 68.14762801 35.92104387 67.24951172 37.21679688 C66.43223435 38.38314973 65.59583055 39.53638904 64.73876953 40.67382812 C62.53397903 43.50887931 62.53397903 43.50887931 62.24707031 46.93261719 C63.06693362 49.1837853 64.0820851 50.87707357 65.44921875 52.84375 C65.96121826 53.58608887 66.47321777 54.32842773 67.00073242 55.09326172 C67.55736572 55.88748535 68.11399902 56.68170898 68.6875 57.5 C69.25895752 58.3264502 69.83041504 59.15290039 70.41918945 60.00439453 C73.55477182 64.52974051 76.72509087 69.03005023 79.90625 73.5234375 C80.53829346 74.41869141 81.17033691 75.31394531 81.8215332 76.23632812 C83.04413108 77.96520918 84.27166257 79.69061433 85.50463867 81.41210938 C86.0638501 82.20166016 86.62306152 82.99121094 87.19921875 83.8046875 C87.69252686 84.49546387 88.18583496 85.18624023 88.6940918 85.89794922 C90.11472813 88.18467175 91.07036287 90.47823203 92 93 C87.64725867 93.29176878 83.29703308 93.46842365 78.9375 93.625 C77.70837891 93.70878906 76.47925781 93.79257813 75.21289062 93.87890625 C66.29027408 94.11940804 66.29027408 94.11940804 62.79321289 91.08544922 C60.9492192 88.47774524 59.47002674 85.8339214 58 83 C56.91133031 81.27999543 55.80865361 79.56876787 54.69140625 77.8671875 C53.64587768 76.20473214 52.60289345 74.54067383 51.5625 72.875 C51.02173828 72.01390625 50.48097656 71.1528125 49.92382812 70.265625 C48.61358404 68.17851053 47.30567208 66.08997646 46 64 C39.70594854 72.35300978 33.1719076 81.11592178 28.77734375 90.65356445 C27 93 27 93 24.1809082 93.56762695 C23.06546631 93.54144287 21.95002441 93.51525879 20.80078125 93.48828125 C18.98803711 93.46411133 18.98803711 93.46411133 17.13867188 93.43945312 C15.87603516 93.39755859 14.61339844 93.35566406 13.3125 93.3125 C12.03826172 93.28994141 10.76402344 93.26738281 9.45117188 93.24414062 C6.2996104 93.18512262 3.15038721 93.10282975 0 93 C0.80796944 89.37512056 2.13873134 87.02012966 4.25 83.9375 C5.32314453 82.36162109 5.32314453 82.36162109 6.41796875 80.75390625 C6.82321777 80.16496582 7.2284668 79.57602539 7.64599609 78.96923828 C9.16239657 76.76381342 10.6693642 74.55209913 12.17578125 72.33984375 C13.30465433 70.68487321 14.43356102 69.02992559 15.5625 67.375 C16.12243652 66.55233643 16.68237305 65.72967285 17.25927734 64.88208008 C19.59685148 61.45898247 21.93295609 58.04677372 24.42578125 54.734375 C25.06902344 53.87328125 25.71226562 53.0121875 26.375 52.125 C26.91898438 51.42632812 27.46296875 50.72765625 28.0234375 50.0078125 C29.1821769 48.01765855 29.1821769 48.01765855 28.9375 45.63671875 C27.7208768 42.214966 25.79171991 39.5556878 23.625 36.6875 C22.71340826 35.44766875 21.80330903 34.20673906 20.89453125 32.96484375 C20.41967285 32.3188623 19.94481445 31.67288086 19.45556641 31.00732422 C16.52614111 26.96744921 13.73357879 22.83261977 10.92114258 18.7109375 C7.73993657 14.0554583 4.4840206 9.46186409 1.14453125 4.91796875 C0 3 0 3 0 0 Z " fill="#238AE4" transform="translate(649,98)"/>
<path d="M0 0 C3 1.25 3 1.25 5 4.25 C5.19840215 7.15163085 5.27816836 9.95762267 5.26742554 12.85997009 C5.27195665 13.74992552 5.27648776 14.63988094 5.28115618 15.55680472 C5.29385708 18.55086145 5.29217616 21.5447376 5.29052734 24.53881836 C5.296509 26.68052913 5.3033137 28.82223773 5.31088257 30.96394348 C5.32858559 36.79030636 5.33323973 42.61661053 5.33451414 48.44299769 C5.33641044 53.30159427 5.34376478 58.16017708 5.35085833 63.01876837 C5.36715583 74.47793272 5.372026 85.93706563 5.37060547 97.39624023 C5.36940331 109.23021899 5.39051692 121.06401557 5.4220928 132.89794821 C5.44821252 143.04746517 5.45897459 153.19692247 5.45769465 163.3464728 C5.4571838 169.4130684 5.46293497 175.47950215 5.48405075 181.54606438 C5.50336096 187.24979 5.50360712 192.95319816 5.48901749 198.65693474 C5.48691938 200.75319887 5.49168946 202.84948249 5.5037384 204.94571304 C5.51909519 207.80186843 5.50994635 210.65691601 5.49447632 213.51304626 C5.50476344 214.34757527 5.51505057 215.18210427 5.52564943 216.04192203 C5.48224961 219.65398864 5.32106739 221.81038153 3.16050148 224.76871586 C0.24187097 226.76978882 -1.53398562 226.76621491 -5 226.25 C-6.65999854 224.95994282 -6.65999854 224.95994282 -8 223.25 C-8.29503925 220.28292152 -8.40445281 217.52567217 -8.38095093 214.55737305 C-8.3856309 213.65854495 -8.39031087 212.75971685 -8.39513266 211.83365154 C-8.4071377 208.80952565 -8.39760392 205.78584833 -8.38818359 202.76171875 C-8.39224685 200.59868097 -8.39758733 198.43564527 -8.40411377 196.27261353 C-8.41782245 190.38842838 -8.41247405 184.50440055 -8.40297651 178.62021255 C-8.3953983 172.47165747 -8.4024204 166.32311614 -8.40713501 160.17456055 C-8.41259793 149.84779433 -8.40538687 139.5210924 -8.39111328 129.19433594 C-8.37478578 117.2433453 -8.38007391 105.29250818 -8.3965925 93.34152126 C-8.41019207 83.09350231 -8.41213451 72.84552967 -8.40427649 62.59750462 C-8.39959156 56.4711766 -8.3989976 50.34492083 -8.40888596 44.21859741 C-8.41753111 38.45991174 -8.4115786 32.70142462 -8.39420319 26.94276047 C-8.39022521 24.82512111 -8.39139464 22.70746513 -8.39799118 20.58983231 C-8.40614505 17.70720238 -8.39595984 14.8252155 -8.38095093 11.94262695 C-8.38764309 11.09740321 -8.39433526 10.25217947 -8.40123022 9.38134289 C-8.34314576 3.66090939 -8.34314576 3.66090939 -6.60140479 1.57521343 C-3.95945453 -0.6110845 -3.46949651 -0.86737413 0 0 Z " fill="#218AE4" transform="translate(323,16.75)"/>
<path d="M0 0 C3.65316671 1.24976756 4.78065836 1.67098753 7 5 C7.18981179 7.89860508 7.26071804 10.70027673 7.24050903 13.59892273 C7.24221788 14.48761687 7.24392673 15.376311 7.24568737 16.29193527 C7.24899196 19.2815372 7.23796261 22.27091665 7.22705078 25.26049805 C7.22648688 27.39884435 7.22680282 29.53719104 7.22793579 31.67553711 C7.22851112 37.4913234 7.21672775 43.30702768 7.20278788 49.12279487 C7.19031042 55.19667126 7.18911238 61.27054941 7.18673706 67.34443665 C7.1805135 78.8510027 7.16409084 90.35753089 7.14403808 101.86408025 C7.12170631 114.96183972 7.11069251 128.05960098 7.10064721 141.15737474 C7.07972537 168.10493751 7.04453239 195.05246664 7 222 C4.43172997 218.14759495 4.71103729 214.98214958 4.7215271 210.51496887 C4.7128385 209.20030365 4.7128385 209.20030365 4.70397437 207.85907954 C4.68691704 204.91098036 4.68409294 201.96303718 4.68115234 199.01489258 C4.67185812 196.90609857 4.66169022 194.79730825 4.65071106 192.68852234 C4.62333994 186.95335356 4.6082406 181.21820944 4.59528303 175.48299241 C4.57968355 169.49316459 4.55288324 163.50338736 4.5272522 157.51359558 C4.48040793 146.16643854 4.44369118 134.81927205 4.41057932 123.47206753 C4.3723978 110.55564658 4.32297728 97.63927636 4.27259517 84.72289813 C4.16919132 58.14863633 4.07995845 31.57434195 4 5 C3.34 5 2.68 5 2 5 C2 4.01 2 3.02 2 2 C1.34 2 0.68 2 0 2 C0 1.34 0 0.68 0 0 Z " fill="#3B93DB" transform="translate(321,16)"/>
<path d="M0 0 C2.10827055 3.16240582 2.33817465 4.50657469 2.625 8.1875 C2.73714844 9.53908203 2.73714844 9.53908203 2.8515625 10.91796875 C2.90054688 11.60503906 2.94953125 12.29210937 3 13 C-9.20416378 13.11571833 -21.40819762 13.20462632 -33.61279774 13.25906086 C-39.27957818 13.28518342 -44.94598402 13.32063048 -50.61254883 13.37719727 C-56.07849 13.43142145 -61.5440703 13.46140049 -67.01025963 13.47438622 C-69.09836194 13.48364331 -71.18644392 13.50171986 -73.27439308 13.52865028 C-76.19353948 13.56481283 -79.11118418 13.56995069 -82.03051758 13.56762695 C-83.33279297 13.59459152 -83.33279297 13.59459152 -84.66137695 13.62210083 C-87.07063293 13.60127258 -87.07063293 13.60127258 -91 13 C-93.06059265 10.46452332 -93.06059265 10.46452332 -94 8 C-92.68 7.67 -91.36 7.34 -90 7 C-90.33 8.32 -90.66 9.64 -91 11 C-60.64 11 -30.28 11 1 11 C0.505 5.555 0.505 5.555 0 0 Z " fill="#3986C7" transform="translate(246,100)"/>
<path d="M0 0 C8.58 0 17.16 0 26 0 C25.34 2.97 24.68 5.94 24 9 C23.67 9 23.34 9 23 9 C22.67 7.02 22.34 5.04 22 3 C15.73 3 9.46 3 3 3 C2.34 4.65 1.68 6.3 1 8 C0.0625 10.25 0.0625 10.25 -1 12 C-1.99 12.33 -2.98 12.66 -4 13 C-3.71517632 11.58194169 -3.42181856 10.16559621 -3.125 8.75 C-2.96257812 7.96109375 -2.80015625 7.1721875 -2.6328125 6.359375 C-2 4 -2 4 0 0 Z " fill="#3C80C4" transform="translate(458,65)"/>
<path d="M0 0 C-0.66 1.32 -1.32 2.64 -2 4 C-2.66 4 -3.32 4 -4 4 C-4.309375 4.61875 -4.61875 5.2375 -4.9375 5.875 C-5.625 7.25 -6.3125 8.625 -7 10 C-8.98 10 -10.96 10 -13 10 C-13.226875 10.556875 -13.45375 11.11375 -13.6875 11.6875 C-15 14 -15 14 -17.4375 16.3125 C-19.71845714 18.70472334 -20.49345925 19.82236282 -21.625 22.75 C-22.07875 23.8225 -22.5325 24.895 -23 26 C-23.99 26.33 -24.98 26.66 -26 27 C-22.64597892 15.56278812 -14.13841829 6.55224477 -3.828125 0.78515625 C-2 0 -2 0 0 0 Z " fill="#2D79D3" transform="translate(809,69)"/>
<path d="M0 0 C8.58 0 17.16 0 26 0 C25.67 0.66 25.34 1.32 25 2 C19.06 2.33 13.12 2.66 7 3 C6.01 4.98 5.02 6.96 4 9 C4.66 9 5.32 9 6 9 C6 10.98 6 12.96 6 15 C5.34 15 4.68 15 4 15 C3.32532438 13.25307205 2.66055844 11.50231475 2 9.75 C1.62875 8.77546875 1.2575 7.8009375 0.875 6.796875 C0 4 0 4 0 0 Z " fill="#337DCA" transform="translate(369,65)"/>
<path d="M0 0 C1.32 0 2.64 0 4 0 C4.26554688 0.63808594 4.53109375 1.27617187 4.8046875 1.93359375 C5.15789063 2.75988281 5.51109375 3.58617187 5.875 4.4375 C6.39707031 5.67306641 6.39707031 5.67306641 6.9296875 6.93359375 C7.8244937 9.15746715 7.8244937 9.15746715 10 10 C10 10.66 10 11.32 10 12 C17.26 12 24.52 12 32 12 C32.33 10.68 32.66 9.36 33 8 C36 11.75 36 11.75 36 14 C31.64725867 14.29176878 27.29703308 14.46842365 22.9375 14.625 C21.70837891 14.70878906 20.47925781 14.79257813 19.21289062 14.87890625 C10.24322606 15.12067618 10.24322606 15.12067618 6.63720703 11.87011719 C4.82668635 9.31370141 3.3629593 6.81741043 2 4 C1.41980103 2.84878662 1.41980103 2.84878662 0.82788086 1.67431641 C0.41807983 0.84552979 0.41807983 0.84552979 0 0 Z " fill="#3C80C3" transform="translate(705,177)"/>
<path d="M0 0 C1.01180406 3.52183861 0.82310908 5.32259511 -0.375 8.8125 C-1.70470183 12.91089604 -2.53507363 16.72267737 -3 21 C-2.01 20.67 -1.02 20.34 0 20 C-0.66 21.32 -1.32 22.64 -2 24 C-2.66 24 -3.32 24 -4 24 C-6.41906454 28.53574602 -8.02290944 33.3798646 -9.78125 38.19921875 C-11 41 -11 41 -13 42 C-10.63196128 32.81942744 -7.74908788 23.82213066 -4.8125 14.8125 C-4.34416694 13.36921657 -3.8760664 11.92585766 -3.40820312 10.48242188 C-2.27480931 6.98740883 -1.13829151 3.49342143 0 0 Z " fill="#387EC7" transform="translate(440,118)"/>
<path d="M0 0 C0.8463501 0.00088623 1.6927002 0.00177246 2.56469727 0.00268555 C11.25734438 0.16572958 19.11915411 1.80327096 26 7.375 C24.35 7.375 22.7 7.375 21 7.375 C21 6.715 21 6.055 21 5.375 C19.1128125 5.313125 19.1128125 5.313125 17.1875 5.25 C16.47980469 5.22679688 15.77210938 5.20359375 15.04296875 5.1796875 C12.68640281 5.24245538 12.68640281 5.24245538 10 7.375 C9.34 7.375 8.68 7.375 8 7.375 C7.65324219 6.55644531 7.30648437 5.73789063 6.94921875 4.89453125 C5.31815378 2.22633313 5.31815378 2.22633313 3.07275391 1.96240234 C0.63665604 1.88235249 -1.7532014 1.94012613 -4.1875 2.0625 C-5.4549707 2.09633789 -5.4549707 2.09633789 -6.74804688 2.13085938 C-8.83278798 2.18975037 -10.91661804 2.27943202 -13 2.375 C-8.63202737 -0.07953619 -4.91576603 -0.00912016 0 0 Z " fill="#3284CE" transform="translate(565,95.625)"/>
<path d="M0 0 C21.12 0 42.24 0 64 0 C64 0.33 64 0.66 64 1 C44.53 1 25.06 1 5 1 C5 3.64 5 6.28 5 9 C2.52746322 5.96552304 1.52573205 3.81433013 0 0 Z " fill="#3583C4" transform="translate(136,80)"/>
<path d="M0 0 C3.61703101 2.83071992 3.13119582 3.78717492 4 9 C13.24 9 22.48 9 32 9 C31.67 9.99 31.34 10.98 31 12 C22.09 12 13.18 12 4 12 C0 3 0 3 0 0 Z " fill="#3C7DC0" transform="translate(409,179)"/>
<path d="M0 0 C1.67116754 2.50675131 2.51773067 4.18386678 3.4362793 6.96484375 C3.6996257 7.75576416 3.96297211 8.54668457 4.23429871 9.36157227 C4.51147232 10.21162842 4.78864594 11.06168457 5.07421875 11.9375 C5.36230911 12.81398193 5.65039948 13.69046387 5.94721985 14.59350586 C6.55391969 16.44532981 7.15812284 18.29797333 7.76000977 20.15136719 C8.68498204 22.9922665 9.62431384 25.8281519 10.56445312 28.6640625 C11.1519269 30.46325286 11.73854469 32.26272299 12.32421875 34.0625 C12.60746506 34.91255615 12.89071136 35.7626123 13.18254089 36.63842773 C13.43643082 37.42934814 13.69032074 38.22026855 13.9519043 39.03515625 C14.1790361 39.7300415 14.40616791 40.42492676 14.6401825 41.14086914 C15 43 15 43 14 46 C11.49312776 43.49312776 11.32637365 41.75208927 10.5625 38.3125 C9.74122916 34.83344813 8.91208882 31.79487392 7.5 28.5 C5.72882088 24.36724871 4.80023887 20.25109484 3.84375 15.8671875 C3.11599487 12.93914199 3.11599487 12.93914199 1.41796875 10.40234375 C-0.71997319 6.78021072 -0.21028572 4.13561921 0 0 Z " fill="#3487CB" transform="translate(395,66)"/>
<path d="M0 0 C0.33 0 0.66 0 1 0 C0.98839844 0.77085938 0.97679687 1.54171875 0.96484375 2.3359375 C0.95582031 3.33882813 0.94679688 4.34171875 0.9375 5.375 C0.92589844 6.37273437 0.91429687 7.37046875 0.90234375 8.3984375 C0.81993398 10.98432453 0.81993398 10.98432453 2 13 C1.34 13.66 0.68 14.32 0 15 C0 14.34 0 13.68 0 13 C-0.66 13 -1.32 13 -2 13 C-1.92458984 14.06734375 -1.92458984 14.06734375 -1.84765625 15.15625 C-2.02574239 18.48052461 -2.96395689 20.52786772 -4.4375 23.5 C-6.17458169 27.02365289 -7.38698008 30.1104943 -8 34 C-8.66 34 -9.32 34 -10 34 C-8.48020523 26.45701858 -6.26246686 19.24753545 -3.875 11.9375 C-3.50246094 10.78572266 -3.12992187 9.63394531 -2.74609375 8.44726562 C-1.83437981 5.63030331 -0.9189396 2.81461174 0 0 Z " fill="#3277CB" transform="translate(453,78)"/>
<path d="M0 0 C3.00469351 2.59496258 3.36858796 3.9214699 5 8 C-4.24 8 -13.48 8 -23 8 C-23.33 7.34 -23.66 6.68 -24 6 C-16.08 6 -8.16 6 0 6 C-0.33 4.68 -0.66 3.36 -1 2 C-0.67 1.34 -0.34 0.68 0 0 Z " fill="#3581C7" transform="translate(892,197)"/>
<path d="M0 0 C2.46800047 1.15173355 4.04783565 2.04783565 6 4 C8.10820797 3.6814823 8.10820797 3.6814823 10 3 C10 4.32 10 5.64 10 7 C11.32 7.33 12.64 7.66 14 8 C14.33 9.32 14.66 10.64 15 12 C15.71542969 12.12246094 16.43085937 12.24492187 17.16796875 12.37109375 C20.05112713 13.01135375 22.58592473 13.93551556 25.3125 15.0625 C26.19550781 15.42472656 27.07851563 15.78695312 27.98828125 16.16015625 C28.65214844 16.43730469 29.31601562 16.71445313 30 17 C25.14527065 18.86097958 21.53026515 16.50287257 17.0390625 14.51953125 C9.93532951 10.96766476 4.86080951 6.22330915 0 0 Z " fill="#2D7DD3" transform="translate(791,173)"/>
<path d="M0 0 C1.99954746 -0.04254356 4.00041636 -0.04080783 6 0 C6.33 0.33 6.66 0.66 7 1 C8.91458282 1.09971786 10.83282317 1.13080589 12.75 1.1328125 C13.9153125 1.13410156 15.080625 1.13539063 16.28125 1.13671875 C18.12203125 1.13091797 18.12203125 1.13091797 20 1.125 C21.2271875 1.12886719 22.454375 1.13273438 23.71875 1.13671875 C24.8840625 1.13542969 26.049375 1.13414062 27.25 1.1328125 C28.32765625 1.13168457 29.4053125 1.13055664 30.515625 1.12939453 C32.94219997 1.28092371 32.94219997 1.28092371 34 0 C35.99958364 -0.04080783 38.00045254 -0.04254356 40 0 C35.63604333 4.36395667 28.56467826 4.26400065 22.69042969 4.328125 C21.42054199 4.32039062 21.42054199 4.32039062 20.125 4.3125 C19.2474707 4.31121094 18.36994141 4.30992187 17.46582031 4.30859375 C11.2787443 4.21669511 5.71757301 3.52776912 0 1 C0 0.67 0 0.34 0 0 Z " fill="#3780C6" transform="translate(545,189)"/>
<path d="M0 0 C2.31 0 4.62 0 7 0 C6.59060025 6.76215448 5.43046191 12.67162748 3 19 C2.34 18.67 1.68 18.34 1 18 C1 17.01 1 16.02 1 15 C1.66 15 2.32 15 3 15 C2.76603516 14.15115234 2.76603516 14.15115234 2.52734375 13.28515625 C2.33269531 12.55167969 2.13804687 11.81820312 1.9375 11.0625 C1.64166016 9.96615234 1.64166016 9.96615234 1.33984375 8.84765625 C1.22769531 8.23792969 1.11554688 7.62820312 1 7 C1.33 6.67 1.66 6.34 2 6 C1.34 5.67 0.68 5.34 0 5 C0 3.35 0 1.7 0 0 Z " fill="#298CD8" transform="translate(242,147)"/>
<path d="M0 0 C-0.3125 1.875 -0.3125 1.875 -1 4 C-1.99 4.66 -2.98 5.32 -4 6 C-3.34 4.35 -2.68 2.7 -2 1 C-9.92 1 -17.84 1 -26 1 C-26.66 2.65 -27.32 4.3 -28 6 C-28.33 6.66 -28.66 7.32 -29 8 C-29.66 8 -30.32 8 -31 8 C-31.226875 8.721875 -31.45375 9.44375 -31.6875 10.1875 C-33.24831013 13.53209313 -35.3031287 15.51603959 -38 18 C-37.34256348 16.32967086 -36.67317344 14.6640492 -36 13 C-35.39865234 11.35064453 -35.39865234 11.35064453 -34.78515625 9.66796875 C-27.79189788 -4.46126755 -13.89135736 -1.22694648 0 0 Z " fill="#3B80C5" transform="translate(741,98)"/>
<path d="M0 0 C5.20824706 1.46481949 9.51460171 4.93641648 13 9 C13.734375 11.73046875 13.734375 11.73046875 14 14 C13.34 14 12.68 14 12 14 C11.67 12.68 11.34 11.36 11 10 C7.7 9.34 4.4 8.68 1 8 C1 7.34 1 6.68 1 6 C0.01 6 -0.98 6 -2 6 C-2 5.34 -2 4.68 -2 4 C-1.34 3.67 -0.68 3.34 0 3 C0 2.01 0 1.02 0 0 Z " fill="#278ADC" transform="translate(868,70)"/>
<path d="M0 0 C0.33 0.99 0.66 1.98 1 3 C13.375 2.505 13.375 2.505 26 2 C25.67 2.99 25.34 3.98 25 5 C16.09 5 7.18 5 -2 5 C-1 1 -1 1 0 0 Z " fill="#3A83C5" transform="translate(651,186)"/>
<path d="M0 0 C0.66 0.66 1.32 1.32 2 2 C4.4255024 2.33145587 4.4255024 2.33145587 7.27587891 2.31884766 C8.3768692 2.33871735 9.4778595 2.35858704 10.61221313 2.37905884 C11.80494843 2.39061005 12.99768372 2.40216125 14.2265625 2.4140625 C16.05349136 2.44311172 16.05349136 2.44311172 17.91732788 2.4727478 C21.8198133 2.53268215 25.72232799 2.57898471 29.625 2.625 C32.2656381 2.66316699 34.90626357 2.70221795 37.546875 2.7421875 C44.03113826 2.83839504 50.51547708 2.92340176 57 3 C57 3.33 57 3.66 57 4 C37.86 4 18.72 4 -1 4 C-0.67 2.68 -0.34 1.36 0 0 Z " fill="#4186C8" transform="translate(137,176)"/>
<path d="M0 0 C-0.66128906 0.86882812 -1.32257812 1.73765625 -2.00390625 2.6328125 C-2.85768564 3.7962042 -3.71049997 4.96030457 -4.5625 6.125 C-5.00013672 6.69476563 -5.43777344 7.26453125 -5.88867188 7.8515625 C-8.13109065 10.95916647 -9.02924238 12.54956476 -8.77734375 16.4296875 C-8.52082031 17.27789062 -8.26429688 18.12609375 -8 19 C-9.32 19 -10.64 19 -12 19 C-12.58053939 15.99002946 -13.04900714 13.07111406 -13 10 C-11.1875 7.9375 -11.1875 7.9375 -9 7 C-8.34 7 -7.68 7 -7 7 C-6.814375 5.2984375 -6.814375 5.2984375 -6.625 3.5625 C-6.41875 2.386875 -6.2125 1.21125 -6 0 C-3.50907189 -1.24546405 -2.58919267 -0.7767578 0 0 Z " fill="#2F87D3" transform="translate(720,130)"/>
<path d="M0 0 C8.58 0 17.16 0 26 0 C26.66 1.32 27.32 2.64 28 4 C26.845 3.690625 25.69 3.38125 24.5 3.0625 C17.44329628 1.46539691 10.20402585 1.33589323 3 1 C3.7763932 4.0745356 3.7763932 4.0745356 6 6 C6 6.99 6 7.98 6 9 C6.66 9 7.32 9 8 9 C8 9.66 8 10.32 8 11 C3.78926767 9.49616703 2.16762883 6.79335044 0 3 C0 2.01 0 1.02 0 0 Z " fill="#3C80C8" transform="translate(649,98)"/>
<path d="M0 0 C0.66 0.33 1.32 0.66 2 1 C4.58894188 11.77097518 3.55280884 25.13033811 2 36 C1.34 36 0.68 36 0 36 C0.0721875 35.32195312 0.144375 34.64390625 0.21875 33.9453125 C1.25978722 23.50602256 1.04955448 14.18977849 -0.66015625 3.80859375 C-0.77230469 2.88175781 -0.88445313 1.95492187 -1 1 C-0.67 0.67 -0.34 0.34 0 0 Z " fill="#3073CC" transform="translate(871,108)"/>
<path d="M0 0 C2.61500768 2.36595933 4.38999603 4.86049226 6 8 C5.67 8.66 5.34 9.32 5 10 C4.34 9.67 3.68 9.34 3 9 C2.67 9.66 2.34 10.32 2 11 C1.01 11 0.02 11 -1 11 C-1 13.64 -1 16.28 -1 19 C-1.66 19 -2.32 19 -3 19 C-2.54240047 12.4491015 -1.7899856 6.3246158 0 0 Z " fill="#3189D1" transform="translate(28,99)"/>
<path d="M0 0 C0.99 0.33 1.98 0.66 3 1 C3 1.66 3 2.32 3 3 C3.66 3.33 4.32 3.66 5 4 C4.67 4.33 4.34 4.66 4 5 C4.33 5.99 4.66 6.98 5 8 C4.5625 10.1875 4.5625 10.1875 4 12 C3.34 12 2.68 12 2 12 C1.67 12.99 1.34 13.98 1 15 C-0.58455205 10.14730934 -1.31046812 6.1744687 -1 1 C-0.67 0.67 -0.34 0.34 0 0 Z " fill="#3184D7" transform="translate(778,137)"/>
<path d="M0 0 C0 2.31 0 4.62 0 7 C-0.928125 6.773125 -1.85625 6.54625 -2.8125 6.3125 C-5.90054028 5.64509373 -5.90054028 5.64509373 -7.5625 7.1875 C-8.2740625 8.0846875 -8.2740625 8.0846875 -9 9 C-11.92339735 11.76537587 -13.24064565 12.94269024 -17.3125 13.25 C-18.199375 13.1675 -19.08625 13.085 -20 13 C-16.03989354 9.92927915 -11.81593954 7.3528744 -7.55859375 4.71875 C-5.02693697 3.13802098 -5.02693697 3.13802098 -3.28515625 1.28125 C-2 0 -2 0 0 0 Z " fill="#2F8AD0" transform="translate(191,190)"/>
<path d="M0 0 C0.66 0.33 1.32 0.66 2 1 C0.35 2.65 -1.3 4.3 -3 6 C-2.34 6.33 -1.68 6.66 -1 7 C-2.04800781 6.98839844 -3.09601562 6.97679687 -4.17578125 6.96484375 C-5.55468572 6.95546345 -6.93359211 6.9463635 -8.3125 6.9375 C-9.00279297 6.92912109 -9.69308594 6.92074219 -10.40429688 6.91210938 C-13.5483025 6.89692094 -15.99420019 6.99806673 -19 8 C-19 7.34 -19 6.68 -19 6 C-19.99 5.67 -20.98 5.34 -22 5 C-22 4.34 -22 3.68 -22 3 C-21.23816406 3.10699219 -20.47632813 3.21398437 -19.69140625 3.32421875 C-12.75156787 4.12996778 -7.3675399 4.05520917 -1 1 C-0.67 0.67 -0.34 0.34 0 0 Z " fill="#2F82CF" transform="translate(578,168)"/>
<path d="M0 0 C3.14480675 2.94259079 5.49230126 6.00060534 7.8125 9.625 C8.43769531 10.58664063 9.06289063 11.54828125 9.70703125 12.5390625 C10.13371094 13.35117188 10.56039062 14.16328125 11 15 C10.67 15.66 10.34 16.32 10 17 C7.68013027 14.84012129 6.04126781 13.07894712 4.5625 10.25 C4.046875 9.5075 3.53125 8.765 3 8 C0.37305578 7.58219121 0.37305578 7.58219121 -2 8 C-2.33 7.01 -2.66 6.02 -3 5 C-1.68 4.67 -0.36 4.34 1 4 C0.67 2.68 0.34 1.36 0 0 Z " fill="#2A87D7" transform="translate(677,102)"/>
<path d="M0 0 C2.63207866 2.3814045 4.53137455 4.7535648 6 8 C5.07156311 11.71374754 3.02816112 14.77338004 1 18 C-0.42944945 15.64561267 -1.08661261 14.51967567 -0.625 11.75 C-0.41875 11.1725 -0.2125 10.595 0 10 C0.99 10 1.98 10 3 10 C3 8.68 3 7.36 3 6 C2.34 6 1.68 6 1 6 C0.67 4.02 0.34 2.04 0 0 Z " fill="#3086CD" transform="translate(124,121)"/>
<path d="M0 0 C0.99 0.33 1.98 0.66 3 1 C1.36047417 5.6393176 -1.06871052 9.63855858 -3.625 13.8125 C-4.04523438 14.50537109 -4.46546875 15.19824219 -4.8984375 15.91210938 C-5.9289467 17.61010748 -6.96401681 19.30533614 -8 21 C-8.33 19.68 -8.66 18.36 -9 17 C-8.34 17 -7.68 17 -7 17 C-7 15.68 -7 14.36 -7 13 C-6.34 13 -5.68 13 -5 13 C-4.566875 11.576875 -4.566875 11.576875 -4.125 10.125 C-3 7 -3 7 -1 5 C-0.35232207 2.42938689 -0.35232207 2.42938689 0 0 Z " fill="#3186CB" transform="translate(96,181)"/>
<path d="M0 0 C0.33 0.66 0.66 1.32 1 2 C-0.77406212 6.85532791 -3.12858265 10.69287397 -6 15 C-6.76939681 17.22602615 -6.76939681 17.22602615 -7 19 C-8.32 19.33 -9.64 19.66 -11 20 C-9.36047417 15.3606824 -6.93128948 11.36144142 -4.375 7.1875 C-3.95476562 6.49462891 -3.53453125 5.80175781 -3.1015625 5.08789062 C-2.0710533 3.38989252 -1.03598319 1.69466386 0 0 Z " fill="#3487CD" transform="translate(149,156)"/>
<path d="M0 0 C0.66 0.33 1.32 0.66 2 1 C-2.63026904 5.9549892 -6.85249089 10.04919563 -13 13 C-13.66 13 -14.32 13 -15 13 C-15 12.34 -15 11.68 -15 11 C-14.34 11 -13.68 11 -13 11 C-12.34 9.35 -11.68 7.7 -11 6 C-9.02 6 -7.04 6 -5 6 C-5 5.34 -5 4.68 -5 4 C-3.37373596 2.61767557 -1.7074998 1.28062485 0 0 Z " fill="#3482CC" transform="translate(601,176)"/>
<path d="M0 0 C2.56864728 1.28432364 2.946539 2.36634751 4 5 C4 6.32 4 7.64 4 9 C4.99 8.67 5.98 8.34 7 8 C6.67 10.97 6.34 13.94 6 17 C2.28898979 12.75884548 0.16288878 7.60622044 -0.1875 2 C-0.125625 1.34 -0.06375 0.68 0 0 Z " fill="#327BCB" transform="translate(519,155)"/>
<path d="M0 0 C0.66 0 1.32 0 2 0 C1.97679687 1.05058594 1.95359375 2.10117188 1.9296875 3.18359375 C1.81410626 10.76861242 1.89751968 17.64131889 4 25 C3.34 25 2.68 25 2 25 C2 24.01 2 23.02 2 22 C1.01 21.67 0.02 21.34 -1 21 C-0.67 14.07 -0.34 7.14 0 0 Z " fill="#3688CB" transform="translate(541,135)"/>
<path d="M0 0 C4.875 1.75 4.875 1.75 6 4 C6.08471364 5.81341842 6.10721083 7.62994161 6.09765625 9.4453125 C6.09443359 10.52167969 6.09121094 11.59804688 6.08789062 12.70703125 C6.07951172 13.83496094 6.07113281 14.96289062 6.0625 16.125 C6.05798828 17.26066406 6.05347656 18.39632812 6.04882812 19.56640625 C6.03701615 22.37765638 6.02054507 25.1888023 6 28 C5.67 28 5.34 28 5 28 C4.67 20.41 4.34 12.82 4 5 C3.34 5 2.68 5 2 5 C2 4.01 2 3.02 2 2 C1.34 2 0.68 2 0 2 C0 1.34 0 0.68 0 0 Z " fill="#3092E5" transform="translate(321,16)"/>
<path d="M0 0 C0.73171544 2.27644803 1.11404619 3.60717425 0.4375 5.9375 C-0.16452755 8.77562988 0.78733667 10.43200707 2 13 C-0.64 13.66 -3.28 14.32 -6 15 C-5.21004562 11.84018247 -4.47061867 9.74357019 -3 6.9375 C-1.78026525 4.60116984 -0.83898177 2.5169453 0 0 Z " fill="#3581CC" transform="translate(587,153)"/>
<path d="M0 0 C0.66 0 1.32 0 2 0 C2 0.66 2 1.32 2 2 C2.66 2 3.32 2 4 2 C4.28875 2.639375 4.5775 3.27875 4.875 3.9375 C5.82823451 6.15206079 5.82823451 6.15206079 8 7 C8.268125 7.5775 8.53625 8.155 8.8125 8.75 C9.98195452 11.24451423 9.98195452 11.24451423 12.625 13.5625 C15 16 15 16 15 19 C9.1382769 13.54935878 4.24419324 7.80397228 0 1 C0 0.67 0 0.34 0 0 Z " fill="#3787CB" transform="translate(43,192)"/>
<path d="M0 0 C1.5625 1.6875 1.5625 1.6875 3 4 C2.6875 6.75 2.6875 6.75 2 9 C4.475 9.99 4.475 9.99 7 11 C7 10.34 7 9.68 7 9 C7.99 9.33 8.98 9.66 10 10 C8 12 8 12 5.0625 12.3125 C2 12 2 12 0.2890625 10.7734375 C-1 9 -1 9 -1.07421875 6.73828125 C-0.94660156 5.93777344 -0.81898438 5.13726562 -0.6875 4.3125 C-0.56761719 3.50425781 -0.44773437 2.69601563 -0.32421875 1.86328125 C-0.21722656 1.24839844 -0.11023438 0.63351563 0 0 Z " fill="#3088D3" transform="translate(316,231)"/>
<path d="M0 0 C1.37562854 1.28965176 2.70766393 2.62689293 4 4 C4 4.66 4 5.32 4 6 C-8.87 5.505 -8.87 5.505 -22 5 C-22 4.67 -22 4.34 -22 4 C-14.74 4 -7.48 4 0 4 C0 2.68 0 1.36 0 0 Z " fill="#3484CD" transform="translate(737,185)"/>
<path d="M0 0 C2.97 0 5.94 0 9 0 C5.6424113 1.67879435 2.47527552 2.97317061 -1.0625 4.1875 C-2.10535156 4.55230469 -3.14820312 4.91710938 -4.22265625 5.29296875 C-7 6 -7 6 -10 5 C-9.01 4.67 -8.02 4.34 -7 4 C-7 3.01 -7 2.02 -7 1 C-4.69 1.33 -2.38 1.66 0 2 C0 1.34 0 0.68 0 0 Z " fill="#3488D0" transform="translate(112,51)"/>
<path d="M0 0 C0.99773437 0.02320313 1.99546875 0.04640625 3.0234375 0.0703125 C4.52777344 0.09738281 4.52777344 0.09738281 6.0625 0.125 C6.83335937 0.14820313 7.60421875 0.17140625 8.3984375 0.1953125 C3.21016924 3.654158 -3.51583857 5.80647737 -9.7890625 4.8828125 C-10.7171875 4.6559375 -11.6453125 4.4290625 -12.6015625 4.1953125 C-12.6015625 3.8653125 -12.6015625 3.5353125 -12.6015625 3.1953125 C-11.3228125 3.0715625 -10.0440625 2.9478125 -8.7265625 2.8203125 C-4.98168093 2.45790461 -3.52246975 0.26444968 0 0 Z " fill="#3588D0" transform="translate(166.6015625,235.8046875)"/>
<path d="M0 0 C2.63884562 2.40111178 4.36413529 5.00555028 6.1875 8.0625 C6.71730469 8.94035156 7.24710937 9.81820312 7.79296875 10.72265625 C9 13 9 13 9 15 C8.34 15 7.68 15 7 15 C7 14.34 7 13.68 7 13 C6.37609375 12.7628125 5.7521875 12.525625 5.109375 12.28125 C2.42476134 10.65059578 2.11842822 9.47195435 1.25 6.5 C1.00765625 5.7059375 0.7653125 4.911875 0.515625 4.09375 C0 2 0 2 0 0 Z " fill="#3185CA" transform="translate(104,87)"/>
<path d="M0 0 C7.92 0 15.84 0 24 0 C23.67 2.64 23.34 5.28 23 8 C22.67 8 22.34 8 22 8 C21.67 6.02 21.34 4.04 21 2 C14.07 1.67 7.14 1.34 0 1 C0 0.67 0 0.34 0 0 Z " fill="#2D84CD" transform="translate(459,66)"/>
<path d="M0 0 C0.66 0.33 1.32 0.66 2 1 C2 1.99 2 2.98 2 4 C0.35 4.33 -1.3 4.66 -3 5 C-3 6.32 -3 7.64 -3 9 C-5.31 9.33 -7.62 9.66 -10 10 C-3.84965831 2.51708428 -3.84965831 2.51708428 0 0 Z " fill="#3189D1" transform="translate(69,39)"/>
<path d="M0 0 C1.32 0.33 2.64 0.66 4 1 C-0.95 3.97 -0.95 3.97 -6 7 C-5.67 8.32 -5.34 9.64 -5 11 C-5.99 11 -6.98 11 -8 11 C-8.33 9.35 -8.66 7.7 -9 6 C-8.01 5.67 -7.02 5.34 -6 5 C-6 4.34 -6 3.68 -6 3 C-4.02 2.67 -2.04 2.34 0 2 C0 1.34 0 0.68 0 0 Z " fill="#3286CC" transform="translate(98,57)"/>
<path d="M0 0 C0.99 0.33 1.98 0.66 3 1 C3 2.65 3 4.3 3 6 C3.66 6 4.32 6 5 6 C5.66 8.97 6.32 11.94 7 15 C6.01 15.495 6.01 15.495 5 16 C4.16280617 13.70967689 3.3301071 11.41789043 2.5 9.125 C2.14228516 8.14853516 2.14228516 8.14853516 1.77734375 7.15234375 C0 2.2265625 0 2.2265625 0 0 Z " fill="#3177D2" transform="translate(394,137)"/>
<path d="M0 0 C0.33 0 0.66 0 1 0 C1.22022756 3.23000416 1.3082321 5.39975854 -0.1875 8.3125 C-2.41233281 10.38389606 -4.05220858 10.51272188 -7 11 C-5.85845641 9.16399255 -4.71165684 7.33125195 -3.5625 5.5 C-2.92441406 4.4790625 -2.28632812 3.458125 -1.62890625 2.40625 C-0.82259766 1.21515625 -0.82259766 1.21515625 0 0 Z " fill="#3280D0" transform="translate(702,116)"/>
<path d="M0 0 C0 0.66 0 1.32 0 2 C-0.7425 2.2475 -1.485 2.495 -2.25 2.75 C-5.20124062 4.09147301 -6.84814974 5.60905526 -9 8 C-10.32 7.34 -11.64 6.68 -13 6 C-4.4 0 -4.4 0 0 0 Z " fill="#387ECC" transform="translate(550,98)"/>
<path d="M0 0 C5.7266425 2.9826263 10.26638344 6.62294157 15 11 C14.01 11.33 13.02 11.66 12 12 C11.34 11.34 10.68 10.68 10 10 C8.68252676 9.30251417 7.35085807 8.63040043 6 8 C6 7.34 6 6.68 6 6 C5.01 5.67 4.02 5.34 3 5 C1.3125 3.5625 1.3125 3.5625 0 2 C0 1.34 0 0.68 0 0 Z " fill="#3183CC" transform="translate(200,36)"/>
<path d="M0 0 C5.66153846 1.47692308 5.66153846 1.47692308 7.375 4.125 C7.684375 5.053125 7.684375 5.053125 8 6 C7.34 6.66 6.68 7.32 6 8 C2.24623848 6.74874616 1.75926711 5.4347596 0 2 C0 1.34 0 0.68 0 0 Z " fill="#2883D9" transform="translate(191,31)"/>
<path d="M0 0 C-3.04213267 1.52106634 -6.28047572 1.37429338 -9.625 1.5625 C-10.68460938 1.62727539 -10.68460938 1.62727539 -11.765625 1.69335938 C-13.51018537 1.79944751 -15.25506697 1.90022889 -17 2 C-17 1.34 -17 0.68 -17 0 C-14.73161744 -0.38955051 -12.46015313 -0.76119129 -10.1875 -1.125 C-8.92292969 -1.33382812 -7.65835938 -1.54265625 -6.35546875 -1.7578125 C-3 -2 -3 -2 0 0 Z " fill="#219AE0" transform="translate(843,85)"/>
<path d="M0 0 C0.556875 0.33 1.11375 0.66 1.6875 1 C3.97233361 2.17980319 3.97233361 2.17980319 6.5625 1.9375 C9 2 9 2 10.8125 3.5 C11.204375 3.995 11.59625 4.49 12 5 C11.01 5.99 10.02 6.98 9 8 C7.49712782 6.85793642 5.99776716 5.71125043 4.5 4.5625 C3.6646875 3.92441406 2.829375 3.28632813 1.96875 2.62890625 C1.3190625 2.09136719 0.669375 1.55382812 0 1 C0 0.67 0 0.34 0 0 Z " fill="#358ACE" transform="translate(65,216)"/>
<path d="M0 0 C0.66 0 1.32 0 2 0 C1.64989059 9.17286652 1.64989059 9.17286652 -1.0625 12.625 C-1.701875 13.07875 -2.34125 13.5325 -3 14 C-2.58846263 9.02906176 -2.20399168 4.55491614 0 0 Z " fill="#337CCE" transform="translate(521,124)"/>
<path d="M0 0 C1.65 0 3.3 0 5 0 C4.5020163 3.73487777 4.12508244 5.81237635 2 9 C-1.125 10.1875 -1.125 10.1875 -4 11 C-3.57847656 10.51789063 -3.15695313 10.03578125 -2.72265625 9.5390625 C-2.17480469 8.90742188 -1.62695312 8.27578125 -1.0625 7.625 C-0.51722656 6.99851563 0.02804688 6.37203125 0.58984375 5.7265625 C2.06958624 4.04367666 2.06958624 4.04367666 3 2 C2.01 1.34 1.02 0.68 0 0 Z " fill="#2F87CE" transform="translate(195,179)"/>
<path d="M0 0 C0.66 0.33 1.32 0.66 2 1 C0.35 5.95 -1.3 10.9 -3 16 C-3.33 16 -3.66 16 -4 16 C-3.979375 14.906875 -3.95875 13.81375 -3.9375 12.6875 C-3.81455548 9.05615809 -3.81455548 9.05615809 -5 6 C-4.01 5.67 -3.02 5.34 -2 5 C-0.78130071 2.49552484 -0.78130071 2.49552484 0 0 Z " fill="#348CD2" transform="translate(445,172)"/>
<path d="M0 0 C2.4375 1.0625 2.4375 1.0625 5 3 C5.8125 6.6875 5.8125 6.6875 6 10 C5.01 10.495 5.01 10.495 4 11 C3.32880451 9.5437455 2.66318193 8.08492133 2 6.625 C1.62875 5.81289062 1.2575 5.00078125 0.875 4.1640625 C0 2 0 2 0 0 Z " fill="#2F8CD2" transform="translate(31,168)"/>
<path d="M0 0 C1 3 1 3 -0.21484375 5.69921875 C-0.78332031 6.68535156 -1.35179687 7.67148438 -1.9375 8.6875 C-2.50339844 9.68136719 -3.06929687 10.67523438 -3.65234375 11.69921875 C-4.31943359 12.83810547 -4.31943359 12.83810547 -5 14 C-5.33 12.68 -5.66 11.36 -6 10 C-5.34 10 -4.68 10 -4 10 C-4.0825 9.0925 -4.165 8.185 -4.25 7.25 C-4 4 -4 4 -2 1.625 C-1.34 1.08875 -0.68 0.5525 0 0 Z " fill="#3583C9" transform="translate(241,172)"/>
<path d="M0 0 C3.22388187 0.93322896 4.66015657 1.41299771 6.375 4.375 C7.03320367 7.13945539 6.78010812 8.34311004 6 11 C4.9944239 9.54550599 3.99569565 8.08627557 3 6.625 C2.443125 5.81289062 1.88625 5.00078125 1.3125 4.1640625 C0 2 0 2 0 0 Z " fill="#367CCD" transform="translate(698,165)"/>
<path d="M0 0 C1 2 1 2 0.43359375 3.76953125 C-2.0150884 8.79173032 -4.4779607 11.71124415 -9 15 C-7.61219205 11.10993227 -5.7847773 8.03441292 -3.375 4.6875 C-2.74335937 3.80449219 -2.11171875 2.92148438 -1.4609375 2.01171875 C-0.97882812 1.34785156 -0.49671875 0.68398437 0 0 Z " fill="#3777CB" transform="translate(678,146)"/>
<path d="M0 0 C2.3125 0.0625 2.3125 0.0625 5 1 C6.87281082 4.54496333 8.21323799 8.06618996 9 12 C4.99027798 8.32442148 2.54664585 4.81033104 0 0 Z " fill="#337EC7" transform="translate(656,110)"/>
<path d="M0 0 C3.36637397 1.4427317 5.66502571 3.16467407 8 6 C8 7.32 8 8.64 8 10 C7.34 10 6.68 10 6 10 C5.95875 9.401875 5.9175 8.80375 5.875 8.1875 C5.12260099 5.64899168 5.12260099 5.64899168 1.9375 4.25 C0.968125 3.8375 -0.00125 3.425 -1 3 C-0.67 2.01 -0.34 1.02 0 0 Z " fill="#2F85CF" transform="translate(874,74)"/>
<path d="M0 0 C3.24299151 2.38957269 5.50902342 4.2047869 7 8 C5.68 7.67 4.36 7.34 3 7 C3 6.01 3 5.02 3 4 C2.67 4.66 2.34 5.32 2 6 C0.35 6 -1.3 6 -3 6 C-2.01 4.02 -1.02 2.04 0 0 Z " fill="#2D87D6" transform="translate(222,56)"/>
<path d="M0 0 C0.66 0.33 1.32 0.66 2 1 C1.67 1.66 1.34 2.32 1 3 C0.01 3 -0.98 3 -2 3 C-2 3.66 -2 4.32 -2 5 C-3.32 5 -4.64 5 -6 5 C-6.66 6.32 -7.32 7.64 -8 9 C-8.66 8.01 -9.32 7.02 -10 6 C-8.3811004 4.96951963 -6.75467511 3.95085322 -5.125 2.9375 C-4.22007813 2.36902344 -3.31515625 1.80054687 -2.3828125 1.21484375 C-1.20332031 0.61349609 -1.20332031 0.61349609 0 0 Z " fill="#3787CF" transform="translate(87,28)"/>
<path d="M0 0 C4.71403788 0.47939368 8.66579301 0.96834048 13 3 C13 3.66 13 4.32 13 5 C8.71 4.34 4.42 3.68 0 3 C0 2.01 0 1.02 0 0 Z " fill="#3086CE" transform="translate(162,20)"/>
<path d="M0 0 C0.66 0 1.32 0 2 0 C0.74194623 4.50802601 -0.90407165 7.4912812 -4 11 C-4.66 8.69 -5.32 6.38 -6 4 C-4.35 3.67 -2.7 3.34 -1 3 C-0.67 2.01 -0.34 1.02 0 0 Z " fill="#2D8BD3" transform="translate(103,171)"/>
<path d="M0 0 C0.99 0 1.98 0 3 0 C2.34309381 3.78239671 1.279869 7.21841526 -0.0625 10.8125 C-0.42472656 11.78832031 -0.78695313 12.76414062 -1.16015625 13.76953125 C-1.57587891 14.87361328 -1.57587891 14.87361328 -2 16 C-3.14417457 12.17265547 -2.54150693 10.68248877 -1 7 C-0.6186926 4.67402489 -0.27539746 2.34087842 0 0 Z " fill="#3783D0" transform="translate(470,97)"/>
<path d="M0 0 C0.66 0.33 1.32 0.66 2 1 C1.21625 1.86625 0.4325 2.7325 -0.375 3.625 C-2.86023612 6.56400114 -3.80897075 9.34183872 -5 13 C-5.99 13.33 -6.98 13.66 -8 14 C-6.58036591 8.32146365 -3.60636039 4.46825784 0 0 Z " fill="#377BC8" transform="translate(791,82)"/>
<path d="M0 0 C0.99 0.33 1.98 0.66 3 1 C2.02471263 2.33617352 1.04466681 3.6688751 0.0625 5 C-0.48277344 5.7425 -1.02804687 6.485 -1.58984375 7.25 C-2.28787109 8.11625 -2.28787109 8.11625 -3 9 C-3.33 9 -3.66 9 -4 9 C-3.6875 5.625 -3.6875 5.625 -3 2 C-2.01 1.34 -1.02 0.68 0 0 Z " fill="#2D88D5" transform="translate(729,112)"/>
<path d="M0 0 C0.99 0.33 1.98 0.66 3 1 C2.71758359 2.46015291 2.42373386 3.91809793 2.125 5.375 C1.96257812 6.18710938 1.80015625 6.99921875 1.6328125 7.8359375 C1 10 1 10 -1 12 C-1.14285714 3.42857143 -1.14285714 3.42857143 0 0 Z " fill="#358AD2" transform="translate(460,124)"/>
<path d="M0 0 C4.35951434 -0.37367266 6.36322291 0.69375111 10 3 C11.98451771 3.71143088 13.98202112 4.38991336 16 5 C13.13421241 6.16161779 11.98369837 5.9946154 8.984375 5.00390625 C7.91703125 4.52824219 6.8496875 4.05257812 5.75 3.5625 C4.67234375 3.08941406 3.5946875 2.61632812 2.484375 2.12890625 C1.66453125 1.75636719 0.8446875 1.38382813 0 1 C0 0.67 0 0.34 0 0 Z " fill="#3C7DBC" transform="translate(805,185)"/>
<path d="M0 0 C0.66 0.66 1.32 1.32 2 2 C4.73434962 2.3063859 7.38279821 2.5113336 10.125 2.625 C10.87910156 2.66367188 11.63320312 2.70234375 12.41015625 2.7421875 C14.27303184 2.83651031 16.13648255 2.91934662 18 3 C18 3.33 18 3.66 18 4 C11.73 4 5.46 4 -1 4 C-0.67 2.68 -0.34 1.36 0 0 Z " fill="#4792D5" transform="translate(137,176)"/>
<path d="M0 0 C5.61 0 11.22 0 17 0 C17 0.33 17 0.66 17 1 C14.73052303 1.36275656 12.45935265 1.71493186 10.1875 2.0625 C8.29064453 2.35833984 8.29064453 2.35833984 6.35546875 2.66015625 C3 3 3 3 0 2 C0 1.34 0 0.68 0 0 Z " fill="#3585CE" transform="translate(829,170)"/>
<path d="M0 0 C1.32 0 2.64 0 4 0 C2.515 5.445 2.515 5.445 1 11 C0.67 11 0.34 11 0 11 C-0.19406478 9.35492782 -0.38007935 7.70890406 -0.5625 6.0625 C-0.66691406 5.14597656 -0.77132812 4.22945313 -0.87890625 3.28515625 C-0.91886719 2.53105469 -0.95882812 1.77695313 -1 1 C-0.67 0.67 -0.34 0.34 0 0 Z " fill="#3388CE" transform="translate(803,104)"/>
<path d="M0 0 C0.66 0.33 1.32 0.66 2 1 C0.5 3.5 0.5 3.5 -2 6 C-4.80138565 6.45442324 -7.13800875 6.23849927 -10 6 C-6.71739341 3.81159561 -3.49181927 1.84114107 0 0 Z " fill="#3B80C9" transform="translate(857,164)"/>
<path d="M0 0 C3 1 3 1 4.6875 3.75 C5.93950669 6.85020705 6.28970125 8.71671912 6 12 C4.41642219 9.62463329 2.88406307 7.23494336 1.375 4.8125 C0.70597656 3.73935547 0.70597656 3.73935547 0.0234375 2.64453125 C-0.31429687 2.10183594 -0.65203125 1.55914062 -1 1 C-0.67 0.67 -0.34 0.34 0 0 Z " fill="#3576CC" transform="translate(674,134)"/>
<path d="M0 0 C1.65 0 3.3 0 5 0 C5.66 2.97 6.32 5.94 7 9 C4.03595495 6.19195732 1.55500981 3.81684226 0 0 Z " fill="#377FC5" transform="translate(665,123)"/>
<path d="M0 0 C2.91488977 2.6234008 4.88503898 5.71816394 7 9 C6.67 9.66 6.34 10.32 6 11 C3.66475218 8.74259377 1.81294927 6.7194239 0 4 C0 2.68 0 1.36 0 0 Z " fill="#3485CB" transform="translate(681,108)"/>
<path d="M0 0 C0.99 0.33 1.98 0.66 3 1 C3 1.66 3 2.32 3 3 C3.99 3.33 4.98 3.66 6 4 C6 5.98 6 7.96 6 10 C3.38275905 7.63202009 1.67138271 5.10399646 0 2 C0 1.34 0 0.68 0 0 Z " fill="#3788C9" transform="translate(77,104)"/>
<path d="M0 0 C0.33 0.99 0.66 1.98 1 3 C1.99 3.33 2.98 3.66 4 4 C4.33 6.64 4.66 9.28 5 12 C2.37599478 9.62590004 0.55431791 7.18635171 -1 4 C-0.6875 1.6875 -0.6875 1.6875 0 0 Z " fill="#3687CB" transform="translate(51,56)"/>
<path d="M0 0 C2.3125 0.1875 2.3125 0.1875 5 1 C6.625 3.3125 6.625 3.3125 8 6 C8.98244845 7.34631825 9.97676564 8.68441297 11 10 C7.81326038 8.59698853 5.67778594 6.92234929 3.25 4.4375 C2.63640625 3.81746094 2.0228125 3.19742188 1.390625 2.55859375 C0 1 0 1 0 0 Z " fill="#327CCB" transform="translate(527,175)"/>
<path d="M0 0 C0.6875 1.6875 0.6875 1.6875 1 4 C-0.25 6.6875 -0.25 6.6875 -2 9 C-2.99 9.33 -3.98 9.66 -5 10 C-3.66511872 6.40608886 -2.03977277 3.24509304 0 0 Z " fill="#3685CD" transform="translate(83,144)"/>
<path d="M0 0 C0.66 0 1.32 0 2 0 C4.43425238 4.96993194 5.34615998 8.34605369 5 14 C2.99006295 10.98509443 2.27376659 8.7850073 1.375 5.3125 C1.11460937 4.31863281 0.85421875 3.32476562 0.5859375 2.30078125 C0.39257812 1.54152344 0.19921875 0.78226562 0 0 Z " fill="#3781C6" transform="translate(386,114)"/>
<path d="M0 0 C0.66 0.33 1.32 0.66 2 1 C1.67 1.556875 1.34 2.11375 1 2.6875 C-0.1309601 5.30284522 -0.15662974 7.1806646 0 10 C-1.65 10 -3.3 10 -5 10 C-3.35 6.7 -1.7 3.4 0 0 Z " fill="#3588CE" transform="translate(118,208)"/>
<path d="M0 0 C-0.33 0.99 -0.66 1.98 -1 3 C-6.28 2.67 -11.56 2.34 -17 2 C-17 1.67 -17 1.34 -17 1 C-14.72926348 0.83201949 -12.45840707 0.66565887 -10.1875 0.5 C-8.29064453 0.36078125 -8.29064453 0.36078125 -6.35546875 0.21875 C-4.24021483 0.08085219 -2.11974408 0 0 0 Z " fill="#2D84D4" transform="translate(441,188)"/>
<path d="M0 0 C2.475 0.99 2.475 0.99 5 2 C5.33 4.64 5.66 7.28 6 10 C5.34 10 4.68 10 4 10 C3.896875 9.46375 3.79375 8.9275 3.6875 8.375 C2.81907303 5.37497956 1.44379704 2.7620465 0 0 Z " fill="#3788CB" transform="translate(87,122)"/>
<path d="M0 0 C0.66 0.33 1.32 0.66 2 1 C1.49396008 3.16874252 1.00016187 4.99967627 0 7 C-4 7 -4 7 -6 6 C-4 4 -2 2 0 0 Z " fill="#2A7AD3" transform="translate(535,105)"/>
<path d="M0 0 C0.66 0.66 1.32 1.32 2 2 C1.9765625 4.1640625 1.9765625 4.1640625 1.625 6.625 C1.51414062 7.44226563 1.40328125 8.25953125 1.2890625 9.1015625 C1.19367188 9.72804688 1.09828125 10.35453125 1 11 C0.34 10.67 -0.32 10.34 -1 10 C-1.125 3.375 -1.125 3.375 0 0 Z " fill="#2887DA" transform="translate(84,106)"/>
<path d="M0 0 C2.475 0.495 2.475 0.495 5 1 C5 3.64 5 6.28 5 9 C2.67527795 6.14693203 1.2491742 3.45925163 0 0 Z " fill="#3579CF" transform="translate(865,99)"/>
<path d="M0 0 C2.475 0.99 2.475 0.99 5 2 C5 2.66 5 3.32 5 4 C4.34 4 3.68 4 3 4 C2.67 5.32 2.34 6.64 2 8 C0.74335022 5.09399739 0 3.20395416 0 0 Z " fill="#3079D2" transform="translate(391,128)"/>
<path d="M0 0 C0.33 1.32 0.66 2.64 1 4 C-0.65 4.33 -2.3 4.66 -4 5 C-4.33 5.99 -4.66 6.98 -5 8 C-5.33 7.01 -5.66 6.02 -6 5 C-5.38125 4.731875 -4.7625 4.46375 -4.125 4.1875 C-1.7004767 3.04443152 -1.7004767 3.04443152 0 0 Z " fill="#3088D3" transform="translate(72,163)"/>
<path d="M0 0 C0.66 0.33 1.32 0.66 2 1 C1.71758359 2.46015291 1.42373386 3.91809793 1.125 5.375 C0.96257812 6.18710938 0.80015625 6.99921875 0.6328125 7.8359375 C0 10 0 10 -2 12 C-1.85962479 10.18706911 -1.71255111 8.3746557 -1.5625 6.5625 C-1.48128906 5.55316406 -1.40007812 4.54382813 -1.31640625 3.50390625 C-1 1 -1 1 0 0 Z " fill="#3588D1" transform="translate(457,135)"/>
<path d="M0 0 C1.98 0.495 1.98 0.495 4 1 C2.75023244 4.65316671 2.32901247 5.78065836 -1 8 C-1 6.68 -1 5.36 -1 4 C-0.34 4 0.32 4 1 4 C0.67 2.68 0.34 1.36 0 0 Z " fill="#2F86D1" transform="translate(721,120)"/>
<path d="M0 0 C0.66 0 1.32 0 2 0 C3.4216319 3.3171411 4.39009109 6.44219804 5 10 C4.34 10 3.68 10 3 10 C2.01 6.7 1.02 3.4 0 0 Z " fill="#367ECD" transform="translate(382,103)"/>
<path d="M0 0 C2.97 0.495 2.97 0.495 6 1 C6 1.66 6 2.32 6 3 C5.34 3 4.68 3 4 3 C4 3.99 4 4.98 4 6 C3.34 6 2.68 6 2 6 C1.34 4.02 0.68 2.04 0 0 Z " fill="#3587CF" transform="translate(122,208)"/>
<path d="M0 0 C0.33 0.66 0.66 1.32 1 2 C0.06421005 4.35981813 -0.93347808 6.69631264 -2 9 C-2.99 9 -3.98 9 -5 9 C-3.7508258 5.54074837 -2.32472205 2.85306797 0 0 Z " fill="#3C7AC1" transform="translate(663,168)"/>
<path d="M0 0 C2.8290723 2.8290723 3.37611108 3.38144425 4 7 C2.02 7.99 2.02 7.99 0 9 C0 6.03 0 3.06 0 0 Z " fill="#2D84CD" transform="translate(58,149)"/>
<path d="M0 0 C2.79872437 2.52788007 4.45773019 4.20411134 5 8 C4.34 8 3.68 8 3 8 C3 7.34 3 6.68 3 6 C2.34 6 1.68 6 1 6 C0.67 4.02 0.34 2.04 0 0 Z " fill="#3182C5" transform="translate(44,126)"/>
<path d="M0 0 C0.33 1.32 0.66 2.64 1 4 C-1.64738916 5.4606285 -2.89448334 6 -6 6 C-4.02 4.02 -2.04 2.04 0 0 Z " fill="#3287CF" transform="translate(58,49)"/>
<path d="M0 0 C2.475 0.99 2.475 0.99 5 2 C5 4.64 5 7.28 5 10 C4.67 10 4.34 10 4 10 C4 8.35 4 6.7 4 5 C3.34 5 2.68 5 2 5 C2 4.01 2 3.02 2 2 C1.34 2 0.68 2 0 2 C0 1.34 0 0.68 0 0 Z " fill="#3688D1" transform="translate(321,16)"/>
<path d="M0 0 C2.66735273 2.48952921 4.55746343 4.63408134 6 8 C4.68 7.67 3.36 7.34 2 7 C1.34 4.69 0.68 2.38 0 0 Z " fill="#3187CF" transform="translate(719,159)"/>
<path d="M0 0 C1.125 3.75 1.125 3.75 0 6 C-0.66 6 -1.32 6 -2 6 C-2 6.99 -2 7.98 -2 9 C-2.66 9 -3.32 9 -4 9 C-2.94124926 5.59687262 -1.99097846 2.98646769 0 0 Z " fill="#3486C6" transform="translate(77,154)"/>
<path d="M0 0 C0.66 0.33 1.32 0.66 2 1 C2 3.31 2 5.62 2 8 C1.34 8 0.68 8 0 8 C-0.38063221 5.6739143 -0.71269945 3.33944736 -1 1 C-0.67 0.67 -0.34 0.34 0 0 Z " fill="#3C7DC3" transform="translate(871,108)"/>
<path d="M0 0 C0.99 0 1.98 0 3 0 C3 2.64 3 5.28 3 8 C0.37613513 4.93882432 0 4.26826873 0 0 Z " fill="#2E86CF" transform="translate(138,81)"/>
</svg>
